<svg xmlns="http://www.w3.org/2000/svg" xmlns:xlink="http://www.w3.org/1999/xlink" width="100" zoomAndPan="magnify" viewBox="0 0 75 37.5" height="50" preserveAspectRatio="xMidYMid meet" version="1.0"><defs><g/><clipPath id="24ed8619dd"><path d="M 57 26.058594 L 61 26.058594 L 61 30.652344 L 57 30.652344 Z M 57 26.058594 " clip-rule="nonzero"/></clipPath></defs><g fill="#ffffff" fill-opacity="1"><g transform="translate(17.732677, 30.897409)"><g><path d="M 9.875 -12.421875 L 9.875 -6.703125 L 2.609375 -6.703125 L 2.609375 -12.421875 L 1.609375 -12.421875 L 1.609375 0 L 2.609375 0 L 2.609375 -5.71875 L 9.875 -5.71875 L 9.875 0 L 10.875 0 L 10.875 -12.421875 Z M 9.875 -12.421875 "/></g></g></g><g fill="#ffffff" fill-opacity="1"><g transform="translate(33.473672, 30.897409)"><g><path d="M 6.890625 -12.421875 L 1.296875 -12.421875 L 1.296875 -11.421875 L 5.90625 -11.421875 L 5.90625 -3.109375 C 5.90625 -1.78125 5.015625 -0.828125 3.828125 -0.828125 C 2.75 -0.828125 1.921875 -1.640625 1.796875 -2.796875 L 0.78125 -2.5625 C 1 -0.90625 2.171875 0.171875 3.828125 0.171875 C 5.609375 0.171875 6.890625 -1.140625 6.890625 -3.015625 Z M 6.890625 -12.421875 "/></g></g></g><g fill="#ffffff" fill-opacity="1"><g transform="translate(44.972342, 30.897409)"><g><path d="M 9.109375 0 L 10.1875 0 L 5.6875 -12.421875 L 4.59375 -12.421875 L 0.109375 0 L 1.203125 0 L 2.25 -3 L 8.046875 -3 Z M 2.59375 -3.953125 L 5.15625 -11.234375 L 7.71875 -3.953125 Z M 2.59375 -3.953125 "/></g></g></g><g fill="#ffffff" fill-opacity="1"><g transform="translate(58.519745, 30.897409)"><g><path d="M 4.671875 0.171875 C 6.6875 0.171875 8.46875 -1 8.46875 -3.171875 C 8.46875 -7.28125 2.28125 -6.296875 2.28125 -9.5 C 2.28125 -10.90625 3.4375 -11.59375 4.671875 -11.59375 C 5.71875 -11.59375 6.578125 -11.125 7.0625 -10.4375 L 7.84375 -11.078125 C 7.203125 -11.921875 6.046875 -12.59375 4.65625 -12.59375 C 2.875 -12.59375 1.28125 -11.453125 1.28125 -9.4375 C 1.28125 -5.4375 7.46875 -6.421875 7.46875 -3.125 C 7.46875 -1.65625 6.203125 -0.828125 4.703125 -0.828125 C 3.1875 -0.828125 2.0625 -1.65625 1.640625 -2.8125 L 0.71875 -2.296875 C 1.328125 -0.84375 2.84375 0.171875 4.671875 0.171875 Z M 4.671875 0.171875 "/></g></g></g><g clip-path="url(#24ed8619dd)"><path fill="#ff66c4" d="M 60.027344 27.21875 C 60.179688 27.375 60.296875 27.550781 60.382812 27.75 C 60.464844 27.953125 60.507812 28.160156 60.507812 28.378906 C 60.507812 28.597656 60.464844 28.804688 60.382812 29.007812 C 60.296875 29.207031 60.179688 29.386719 60.027344 29.539062 C 59.871094 29.691406 59.695312 29.8125 59.496094 29.894531 C 59.292969 29.976562 59.085938 30.019531 58.867188 30.019531 C 58.648438 30.019531 58.441406 29.976562 58.238281 29.894531 C 58.039062 29.8125 57.863281 29.691406 57.707031 29.539062 C 57.554688 29.386719 57.433594 29.207031 57.351562 29.007812 C 57.269531 28.804688 57.226562 28.597656 57.226562 28.378906 C 57.226562 28.160156 57.269531 27.953125 57.351562 27.75 C 57.433594 27.550781 57.554688 27.375 57.707031 27.21875 C 57.863281 27.066406 58.039062 26.949219 58.238281 26.863281 C 58.441406 26.78125 58.648438 26.738281 58.867188 26.738281 C 59.085938 26.738281 59.292969 26.78125 59.496094 26.863281 C 59.695312 26.949219 59.871094 27.066406 60.027344 27.21875 Z M 60.027344 27.21875 " fill-opacity="1" fill-rule="nonzero"/></g><g fill="#ffffff" fill-opacity="1"><g transform="translate(7.125471, 31.780089)"><g><path d="M 2 0 L 8.375 0 L 8.375 -0.515625 C 7.15625 -0.859375 6.8125 -1.765625 6.8125 -5 L 6.8125 -22.546875 C 6.8125 -25.765625 7.15625 -26.671875 8.375 -27.03125 L 8.375 -27.546875 L 2 -27.546875 L 2 -27.03125 C 3.1875 -26.671875 3.578125 -25.765625 3.578125 -22.546875 L 3.578125 -5 C 3.578125 -1.765625 3.1875 -0.859375 2 -0.515625 Z M 2 0 "/></g></g></g></svg>