<svg xmlns="http://www.w3.org/2000/svg" xmlns:xlink="http://www.w3.org/1999/xlink" width="500" zoomAndPan="magnify" viewBox="0 0 375 374.999991" height="500" preserveAspectRatio="xMidYMid meet" version="1.0"><defs><g/></defs><g fill="#d48b1d" fill-opacity="1"><g transform="translate(79.553738, 258.688493)"><g><path d="M 11.140625 0 L 46.515625 0 L 46.515625 -2.84375 C 39.75 -4.8125 37.78125 -9.828125 37.78125 -27.734375 L 37.78125 -125.140625 C 37.78125 -143.0625 39.75 -148.078125 46.515625 -150.046875 L 46.515625 -152.890625 L 11.140625 -152.890625 L 11.140625 -150.046875 C 17.6875 -148.078125 19.875 -143.0625 19.875 -125.140625 L 19.875 -27.734375 C 19.875 -9.828125 17.6875 -4.8125 11.140625 -2.84375 Z M 11.140625 0 "/></g></g></g><g fill="#ffffff" fill-opacity="1"><g transform="translate(48.790076, 235.120396)"><g><path d="M 40.3125 25.125 C 52 24.640625 76.625 14.5625 89.4375 -28.484375 C 102.0625 -70.71875 109.59375 -122.390625 113.59375 -134.859375 C 140.953125 -128.3125 144.625 -139.03125 141.421875 -143.671875 C 135.671875 -151.984375 115.34375 -154.703125 109.75 -136.46875 C 40.953125 -157.75 14.71875 -126.390625 15.515625 -115.1875 C 15.671875 -112.46875 17.765625 -113.75 16.640625 -115.03125 C 20.796875 -139.984375 62.71875 -150.390625 109.421875 -135.671875 C 93.4375 -83.984375 81.4375 21.125 40.3125 24 C -8.484375 27.359375 19.03125 -64.46875 74.875 -58.71875 C 76.3125 -54.71875 79.515625 -60 75.1875 -59.671875 C 17.765625 -65.75 -11.03125 27.203125 40.3125 25.125 Z M 113.90625 -135.671875 C 118.546875 -153.109375 132.78125 -151.34375 140.140625 -143.5 C 143.1875 -140.3125 140.953125 -128.953125 113.90625 -135.671875 Z M 113.90625 -135.671875 "/></g></g></g><g fill="#d48b1d" fill-opacity="1"><g transform="translate(49.432802, 235.88637)"><g><path d="M 40.3125 25.125 C 52 24.640625 76.625 14.5625 89.4375 -28.484375 C 102.0625 -70.71875 109.59375 -122.390625 113.59375 -134.859375 C 140.953125 -128.3125 144.625 -139.03125 141.421875 -143.671875 C 135.671875 -151.984375 115.34375 -154.703125 109.75 -136.46875 C 40.953125 -157.75 14.71875 -126.390625 15.515625 -115.1875 C 15.671875 -112.46875 17.765625 -113.75 16.640625 -115.03125 C 20.796875 -139.984375 62.71875 -150.390625 109.421875 -135.671875 C 93.4375 -83.984375 81.4375 21.125 40.3125 24 C -8.484375 27.359375 19.03125 -64.46875 74.875 -58.71875 C 76.3125 -54.71875 79.515625 -60 75.1875 -59.671875 C 17.765625 -65.75 -11.03125 27.203125 40.3125 25.125 Z M 113.90625 -135.671875 C 118.546875 -153.109375 132.78125 -151.34375 140.140625 -143.5 C 143.1875 -140.3125 140.953125 -128.953125 113.90625 -135.671875 Z M 113.90625 -135.671875 "/></g></g></g><g fill="#000000" fill-opacity="1"><g transform="translate(185.430651, 195.718142)"><g><path d="M 1.65625 0 L 2.625 0 L 2.625 -12 L 1.65625 -12 Z M 1.65625 0 "/></g></g></g><g fill="#000000" fill-opacity="1"><g transform="translate(192.841729, 195.718142)"><g><path d="M 9.546875 -12 L 9.546875 -6.484375 L 2.515625 -6.484375 L 2.515625 -12 L 1.5625 -12 L 1.5625 0 L 2.515625 0 L 2.515625 -5.515625 L 9.546875 -5.515625 L 9.546875 0 L 10.5 0 L 10.5 -12 Z M 9.546875 -12 "/></g></g></g><g fill="#000000" fill-opacity="1"><g transform="translate(208.050912, 195.718142)"><g><path d="M 6.65625 -12 L 1.265625 -12 L 1.265625 -11.046875 L 5.703125 -11.046875 L 5.703125 -3 C 5.703125 -1.71875 4.84375 -0.796875 3.703125 -0.796875 C 2.65625 -0.796875 1.859375 -1.578125 1.734375 -2.703125 L 0.765625 -2.484375 C 0.953125 -0.875 2.09375 0.15625 3.703125 0.15625 C 5.421875 0.15625 6.65625 -1.09375 6.65625 -2.921875 Z M 6.65625 -12 "/></g></g></g><g fill="#000000" fill-opacity="1"><g transform="translate(219.161096, 195.718142)"><g><path d="M 8.796875 0 L 9.84375 0 L 5.5 -12 L 4.4375 -12 L 0.09375 0 L 1.15625 0 L 2.1875 -2.90625 L 7.78125 -2.90625 Z M 2.5 -3.8125 L 4.984375 -10.859375 L 7.453125 -3.8125 Z M 2.5 -3.8125 "/></g></g></g><g fill="#000000" fill-opacity="1"><g transform="translate(232.250802, 195.718142)"><g><path d="M 4.515625 0.15625 C 6.453125 0.15625 8.1875 -0.953125 8.1875 -3.0625 C 8.1875 -7.046875 2.203125 -6.078125 2.203125 -9.1875 C 2.203125 -10.546875 3.3125 -11.203125 4.515625 -11.203125 C 5.515625 -11.203125 6.359375 -10.734375 6.8125 -10.078125 L 7.578125 -10.703125 C 6.953125 -11.515625 5.84375 -12.15625 4.5 -12.15625 C 2.78125 -12.15625 1.234375 -11.0625 1.234375 -9.125 C 1.234375 -5.265625 7.21875 -6.203125 7.21875 -3.015625 C 7.21875 -1.59375 6 -0.796875 4.546875 -0.796875 C 3.078125 -0.796875 2 -1.59375 1.578125 -2.71875 L 0.703125 -2.21875 C 1.28125 -0.8125 2.734375 0.15625 4.515625 0.15625 Z M 4.515625 0.15625 "/></g></g></g><g fill="#000000" fill-opacity="1"><g transform="translate(244.280762, 195.718142)"><g/></g></g><g fill="#000000" fill-opacity="1"><g transform="translate(252.351684, 195.718142)"><g><path d="M 8.796875 0 L 9.84375 0 L 5.5 -12 L 4.4375 -12 L 0.09375 0 L 1.15625 0 L 2.1875 -2.90625 L 7.78125 -2.90625 Z M 2.5 -3.8125 L 4.984375 -10.859375 L 7.453125 -3.8125 Z M 2.5 -3.8125 "/></g></g></g><g fill="#000000" fill-opacity="1"><g transform="translate(265.44139, 195.718142)"><g><path d="M 7.1875 -6.078125 C 8.234375 -6.5625 8.984375 -7.5625 8.984375 -8.84375 C 8.984375 -10.65625 7.546875 -12 5.765625 -12 L 1.5625 -12 L 1.5625 0 L 6.15625 0 C 7.9375 0 9.359375 -1.34375 9.359375 -3.140625 C 9.359375 -4.578125 8.4375 -5.6875 7.1875 -6.078125 Z M 8.015625 -8.78125 C 8.015625 -7.484375 6.984375 -6.453125 5.65625 -6.453125 L 2.515625 -6.453125 L 2.515625 -11.046875 L 5.65625 -11.046875 C 6.953125 -11.046875 8.015625 -10.078125 8.015625 -8.78125 Z M 6.046875 -0.953125 L 2.515625 -0.953125 L 2.515625 -5.546875 L 6.046875 -5.546875 C 7.359375 -5.546875 8.40625 -4.515625 8.40625 -3.234375 C 8.40625 -1.9375 7.359375 -0.953125 6.046875 -0.953125 Z M 6.046875 -0.953125 "/></g></g></g><g fill="#000000" fill-opacity="1"><g transform="translate(279.010981, 195.718142)"><g><path d="M 1.5625 0 L 4.6875 0 C 8 0 10.6875 -2.6875 10.6875 -6 C 10.6875 -9.3125 8 -12 4.6875 -12 L 1.5625 -12 Z M 2.515625 -0.953125 L 2.515625 -11.046875 L 4.65625 -11.046875 C 7.484375 -11.046875 9.71875 -8.859375 9.71875 -6 C 9.71875 -3.140625 7.484375 -0.953125 4.65625 -0.953125 Z M 2.515625 -0.953125 "/></g></g></g><g fill="#000000" fill-opacity="1"><g transform="translate(293.940238, 195.718142)"><g><path d="M 5.875 0.15625 C 8.40625 0.15625 10.28125 -1.625 10.28125 -3.953125 L 10.28125 -12 L 9.3125 -12 L 9.3125 -4.09375 C 9.3125 -2.21875 7.84375 -0.796875 5.875 -0.796875 C 3.9375 -0.796875 2.453125 -2.21875 2.453125 -4.09375 L 2.453125 -12 L 1.5 -12 L 1.5 -3.953125 C 1.5 -1.625 3.375 0.15625 5.875 0.15625 Z M 5.875 0.15625 "/></g></g></g><g fill="#000000" fill-opacity="1"><g transform="translate(308.869501, 195.718142)"><g><path d="M 2.515625 -0.953125 L 2.515625 -12 L 1.5625 -12 L 1.5625 0 L 7.09375 0 L 7.09375 -0.953125 Z M 2.515625 -0.953125 "/></g></g></g><g fill="#000000" fill-opacity="1"><g transform="translate(319.339837, 195.718142)"><g><path d="M 2.515625 -0.953125 L 2.515625 -12 L 1.5625 -12 L 1.5625 0 L 7.09375 0 L 7.09375 -0.953125 Z M 2.515625 -0.953125 "/></g></g></g><g fill="#000000" fill-opacity="1"><g transform="translate(329.810173, 195.718142)"><g><path d="M 8.796875 0 L 9.84375 0 L 5.5 -12 L 4.4375 -12 L 0.09375 0 L 1.15625 0 L 2.1875 -2.90625 L 7.78125 -2.90625 Z M 2.5 -3.8125 L 4.984375 -10.859375 L 7.453125 -3.8125 Z M 2.5 -3.8125 "/></g></g></g><g fill="#000000" fill-opacity="1"><g transform="translate(342.899879, 195.718142)"><g><path d="M 9.546875 -12 L 9.546875 -6.484375 L 2.515625 -6.484375 L 2.515625 -12 L 1.5625 -12 L 1.5625 0 L 2.515625 0 L 2.515625 -5.515625 L 9.546875 -5.515625 L 9.546875 0 L 10.5 0 L 10.5 -12 Z M 9.546875 -12 "/></g></g></g></svg>