<svg xmlns="http://www.w3.org/2000/svg" xmlns:xlink="http://www.w3.org/1999/xlink" width="1000" zoomAndPan="magnify" viewBox="0 0 750 374.999991" height="500" preserveAspectRatio="xMidYMid meet" version="1.0"><defs><g/></defs><g fill="#ffffff" fill-opacity="1"><g transform="translate(243.897185, 248.527493)"><g><path d="M 59.0625 -74.296875 L 59.0625 -40.125 L 15.609375 -40.125 L 15.609375 -74.296875 L 9.65625 -74.296875 L 9.65625 0 L 15.609375 0 L 15.609375 -34.171875 L 59.0625 -34.171875 L 59.0625 0 L 65.015625 0 L 65.015625 -74.296875 Z M 59.0625 -74.296875 "/></g></g></g><g fill="#ffffff" fill-opacity="1"><g transform="translate(338.072222, 248.527493)"><g><path d="M 41.234375 -74.296875 L 7.796875 -74.296875 L 7.796875 -68.359375 L 35.296875 -68.359375 L 35.296875 -18.578125 C 35.296875 -10.65625 29.96875 -4.953125 22.90625 -4.953125 C 16.46875 -4.953125 11.515625 -9.78125 10.765625 -16.71875 L 4.703125 -15.359375 C 5.9375 -5.453125 13 0.984375 22.90625 0.984375 C 33.5625 0.984375 41.234375 -6.8125 41.234375 -18.078125 Z M 41.234375 -74.296875 "/></g></g></g><g fill="#ffffff" fill-opacity="1"><g transform="translate(406.866323, 248.527493)"><g><path d="M 54.484375 0 L 60.921875 0 L 34.046875 -74.296875 L 27.484375 -74.296875 L 0.625 0 L 7.1875 0 L 13.5 -17.953125 L 48.171875 -17.953125 Z M 15.484375 -23.65625 L 30.828125 -67.234375 L 46.1875 -23.65625 Z M 15.484375 -23.65625 "/></g></g></g><g fill="#ffffff" fill-opacity="1"><g transform="translate(487.917565, 248.527493)"><g><path d="M 27.984375 0.984375 C 40 0.984375 50.640625 -5.9375 50.640625 -18.953125 C 50.640625 -43.59375 13.625 -37.640625 13.625 -56.84375 C 13.625 -65.25 20.5625 -69.34375 27.984375 -69.34375 C 34.171875 -69.34375 39.375 -66.5 42.21875 -62.40625 L 46.9375 -66.25 C 43.09375 -71.328125 36.15625 -75.28125 27.859375 -75.28125 C 17.21875 -75.28125 7.671875 -68.484375 7.671875 -56.46875 C 7.671875 -32.5625 44.703125 -38.390625 44.703125 -18.703125 C 44.703125 -9.90625 37.15625 -4.953125 28.109375 -4.953125 C 19.0625 -4.953125 12.390625 -9.90625 9.78125 -16.84375 L 4.328125 -13.75 C 7.921875 -5.078125 16.96875 0.984375 27.984375 0.984375 Z M 27.984375 0.984375 "/></g></g></g><path fill="#ff66c4" d="M 496.929688 226.527344 C 497.386719 226.980469 497.792969 227.476562 498.152344 228.011719 C 498.507812 228.546875 498.808594 229.113281 499.058594 229.707031 C 499.304688 230.304688 499.488281 230.917969 499.613281 231.546875 C 499.742188 232.179688 499.804688 232.816406 499.804688 233.460938 C 499.804688 234.105469 499.742188 234.742188 499.617188 235.375 C 499.488281 236.007812 499.304688 236.621094 499.058594 237.214844 C 498.8125 237.8125 498.507812 238.375 498.152344 238.910156 C 497.792969 239.445312 497.386719 239.941406 496.929688 240.398438 C 496.476562 240.851562 495.980469 241.261719 495.445312 241.617188 C 494.910156 241.976562 494.34375 242.277344 493.75 242.523438 C 493.152344 242.769531 492.539062 242.957031 491.910156 243.082031 C 491.277344 243.207031 490.640625 243.269531 489.996094 243.269531 C 489.351562 243.269531 488.714844 243.207031 488.082031 243.082031 C 487.449219 242.957031 486.835938 242.769531 486.242188 242.523438 C 485.644531 242.277344 485.082031 241.976562 484.546875 241.617188 C 484.011719 241.261719 483.515625 240.851562 483.058594 240.398438 C 482.605469 239.941406 482.195312 239.445312 481.839844 238.910156 C 481.480469 238.375 481.179688 237.8125 480.933594 237.214844 C 480.6875 236.621094 480.5 236.007812 480.375 235.375 C 480.25 234.746094 480.1875 234.105469 480.1875 233.460938 C 480.1875 232.816406 480.25 232.179688 480.375 231.546875 C 480.5 230.917969 480.6875 230.304688 480.933594 229.707031 C 481.179688 229.113281 481.480469 228.546875 481.839844 228.011719 C 482.195312 227.476562 482.605469 226.980469 483.058594 226.527344 C 483.515625 226.070312 484.011719 225.664062 484.546875 225.304688 C 485.082031 224.949219 485.644531 224.644531 486.242188 224.398438 C 486.835938 224.152344 487.449219 223.96875 488.082031 223.839844 C 488.710938 223.714844 489.351562 223.652344 489.996094 223.652344 C 490.640625 223.652344 491.277344 223.714844 491.910156 223.839844 C 492.539062 223.96875 493.152344 224.152344 493.75 224.398438 C 494.34375 224.644531 494.910156 224.949219 495.445312 225.304688 C 495.980469 225.664062 496.476562 226.070312 496.929688 226.527344 Z M 496.929688 226.527344 " fill-opacity="1" fill-rule="nonzero"/><g fill="#ffffff" fill-opacity="1"><g transform="translate(180.436523, 253.808354)"><g><path d="M 12 0 L 50.125 0 L 50.125 -3.0625 C 42.828125 -5.171875 40.71875 -10.59375 40.71875 -29.890625 L 40.71875 -134.859375 C 40.71875 -154.15625 42.828125 -159.5625 50.125 -161.6875 L 50.125 -164.734375 L 12 -164.734375 L 12 -161.6875 C 19.0625 -159.5625 21.421875 -154.15625 21.421875 -134.859375 L 21.421875 -29.890625 C 21.421875 -10.59375 19.0625 -5.171875 12 -3.0625 Z M 12 0 "/></g></g></g></svg>